<?xml version="1.0" encoding="UTF-8" standalone="no"?>
<!-- Created with Inkscape (http://www.inkscape.org/) -->

<svg
   xmlns:dc="http://purl.org/dc/elements/1.1/"
   xmlns:cc="http://creativecommons.org/ns#"
   xmlns:rdf="http://www.w3.org/1999/02/22-rdf-syntax-ns#"
   xmlns:svg="http://www.w3.org/2000/svg"
   xmlns="http://www.w3.org/2000/svg"
   xmlns:sodipodi="http://sodipodi.sourceforge.net/DTD/sodipodi-0.dtd"
   xmlns:inkscape="http://www.inkscape.org/namespaces/inkscape"
   version="1.1"
   id="svg2"
   width="320"
   height="320"
   viewBox="0 0 320 320"
   sodipodi:docname="LogoVector.svg"
   inkscape:version="0.92.3 (2405546, 2018-03-11)">
  <metadata
     id="metadata8">
    <rdf:RDF>
      <cc:Work
         rdf:about="">
        <dc:format>image/svg+xml</dc:format>
        <dc:type
           rdf:resource="http://purl.org/dc/dcmitype/StillImage" />
        <dc:title></dc:title>
      </cc:Work>
    </rdf:RDF>
  </metadata>
  <defs
     id="defs6" />
  <sodipodi:namedview
     pagecolor="#ffffff"
     bordercolor="#666666"
     borderopacity="1"
     objecttolerance="10"
     gridtolerance="10"
     guidetolerance="10"
     inkscape:pageopacity="0"
     inkscape:pageshadow="2"
     inkscape:window-width="1366"
     inkscape:window-height="717"
     id="namedview4"
     showgrid="false"
     showguides="true"
     inkscape:guide-bbox="true"
     inkscape:zoom="2"
     inkscape:cx="141.26524"
     inkscape:cy="218.72218"
     inkscape:window-x="0"
     inkscape:window-y="25"
     inkscape:window-maximized="1"
     inkscape:current-layer="svg2">
    <sodipodi:guide
       position="100,200.9375"
       orientation="0,1"
       id="guide3730"
       inkscape:locked="false" />
  </sodipodi:namedview>
  <path
     style="fill:#000000;stroke-width:0.03223909"
     d="M 25.569753,96.998094 C 24.110661,96.133882 20.150956,93.205551 16.302671,90.144899 15.133075,89.214671 14.097757,88.35614 13.823896,88.089431 l -0.205924,-0.200314 0.0171,-0.316873 c 0.03566,-0.667281 0.552095,-2.27175 1.829179,-5.6845 1.059844,-2.832152 2.979857,-7.85415 3.010334,-7.873832 0.01976,-0.01337 0.529824,-0.189627 1.13269,-0.391793 0.602873,-0.202715 2.024623,-0.680779 3.159435,-1.063006 3.499425,-1.178619 5.599964,-1.80061 6.243564,-1.848738 l 0.247082,-0.0187 0.284824,0.153041 c 1.892965,1.01669 10.667471,7.710729 11.741197,8.957293 0.119576,0.138618 0.133578,0.172815 0.133578,0.322302 -1.03e-4,0.357939 -0.31493,1.442021 -0.951431,3.276499 -0.523382,1.508427 -0.941681,2.634009 -2.463663,6.629507 l -1.425517,3.742276 -3.777639,1.261663 c -4.78955,1.599611 -6.495127,2.134503 -6.806235,2.134503 -0.104215,0 -0.198525,-0.03612 -0.422628,-0.170666 z m 2.725862,-2.808756 c 0.592953,-0.135954 1.324203,-0.361128 3.165261,-0.974472 l 1.79511,-0.598052 -0.183168,-0.152516 c -0.10074,-0.08389 -0.596625,-0.482384 -1.101971,-0.88579 -1.404058,-1.120771 -1.505583,-1.206847 -1.613748,-1.36822 -0.0942,-0.140493 -0.09976,-0.164792 -0.08589,-0.37601 0.01097,-0.165591 0.05075,-0.315513 0.150797,-0.56422 0.168451,-0.418893 0.433464,-0.939692 0.51672,-1.015081 0.05972,-0.05418 0.06857,-0.05292 0.206859,0.03155 0.18688,0.109724 0.856667,0.591194 1.941075,1.395823 1.242304,0.921816 1.945645,1.396406 2.069518,1.396406 0.05909,0 0.264732,-0.451376 0.663029,-1.455142 0.984439,-2.481528 2.567249,-6.952198 2.567249,-7.251287 0,-0.09612 -0.14655,-0.08115 -0.805612,0.08389 -0.8359,0.20939 -1.692751,0.472898 -3.888104,1.194172 -1.062271,0.348921 -1.977971,0.649312 -2.034863,0.66736 -0.08032,0.02697 -0.113827,0.06229 -0.149809,0.164802 -0.02564,0.07212 -0.506256,1.328903 -1.06832,2.791738 -1.599606,4.163157 -2.595447,6.830461 -2.595447,6.951751 0,0.06035 0.05932,0.05555 0.451338,-0.036 z m -2.697466,-0.46188 c 0.860052,-2.046735 2.861597,-7.286854 3.459829,-9.057852 0.212789,-0.629895 0.239897,-0.735149 0.2075,-0.806173 -0.103757,-0.227825 -0.514437,-0.60724 -1.126324,-1.040832 -0.840603,-0.595605 -0.952745,-0.826848 -0.760536,-1.568146 0.106306,-0.409864 0.272997,-0.758522 0.409043,-0.855365 0.165512,-0.118319 0.403583,-0.09989 0.703531,0.05292 0.285951,0.145292 0.395683,0.219276 0.965012,0.646318 0.720876,0.540904 1.203168,0.847833 1.540973,0.980553 l 0.170854,0.06732 0.812479,-0.255873 c 0.446871,-0.140755 1.421791,-0.444621 2.166516,-0.675464 2.363597,-0.732509 3.648748,-1.209338 3.713336,-1.37765 0.05349,-0.139418 -1.1298,-1.129914 -3.245867,-2.717388 -2.297734,-1.723748 -4.451538,-3.199532 -4.94044,-3.385239 -0.08277,-0.03155 -0.09249,-0.02697 -0.151972,0.09075 -0.289382,0.567158 -2.048575,5.13043 -3.170379,8.22361 -0.495787,1.367112 -0.616865,1.745647 -0.591084,1.848365 0.04867,0.193639 0.468595,0.594222 1.077039,1.026739 0.823921,0.585696 0.959512,0.798618 0.862232,1.354128 -0.02564,0.147693 -0.08165,0.370158 -0.124142,0.494454 -0.162094,0.475172 -0.307482,0.656845 -0.547511,0.683899 -0.290328,0.03155 -0.63689,-0.150367 -1.463562,-0.774044 -0.804023,-0.606338 -1.497504,-1.022751 -1.703364,-1.022751 -0.04951,0 -0.287081,0.06412 -0.527882,0.14263 -0.240806,0.07852 -1.141463,0.360191 -2.001441,0.626419 -1.723415,0.533189 -2.135177,0.666332 -2.756441,0.891586 -0.721725,0.261748 -1.368726,0.547738 -1.4176,0.626773 -0.0112,0.01875 0.01362,0.07772 0.05409,0.13328 0.407195,0.555157 4.898542,3.940796 7.182731,5.41434 0.415497,0.268126 0.96382,0.579307 1.020567,0.579307 0.02084,0 0.102775,-0.155705 0.182902,-0.34667 z m -8.316334,-8.323309 c 0.836167,-0.211264 1.574168,-0.44189 3.92039,-1.226003 l 2.272046,-0.759094 0.815617,-2.127817 c 1.943746,-5.070904 2.842035,-7.472196 2.882341,-7.705119 0.0098,-0.05692 -0.0038,-0.06332 -0.117759,-0.05315 -0.370766,0.03155 -1.409371,0.34259 -3.705802,1.110176 l -1.578017,0.527359 0.401279,0.325891 c 0.220719,0.179216 0.850768,0.686093 1.400145,1.126257 1.130437,0.905609 1.196914,0.978221 1.188905,1.297632 -0.0096,0.377792 -0.578359,1.646461 -0.738366,1.646461 -0.08365,0 -0.612247,-0.370592 -2.045813,-1.434683 -0.505351,-0.375095 -1.078395,-0.791143 -1.273446,-0.924571 -0.354922,-0.242787 -0.790556,-0.51001 -0.831484,-0.51001 -0.03926,0 -0.171202,0.293854 -0.499387,1.112256 -0.982848,2.450679 -2.908569,7.579086 -2.908569,7.745774 0,0.03155 0.343006,-0.03154 0.817954,-0.151178 z"
     id="path3715"
     inkscape:connector-curvature="0"
     inkscape:export-filename="/home/oscar/Imágenes/LogoBlack900pp.png"
     inkscape:export-xdpi="900.08002"
     inkscape:export-ydpi="900.08002" />
  <path
     style="fill:#000000;stroke-width:0.19996673"
     d="m 72.69706,87.222042 v -7.59871 h 0.583501 c 0.835386,0 1.216173,0.189639 1.216173,0.60492 0,0.92896 0.207264,1.007858 0.99132,0.377827 2.408321,-1.935389 5.570556,-1.221842 6.722716,1.516919 0.50691,1.204961 0.60987,3.965987 0.20031,5.374439 -0.48112,1.65508 -2.00057,3.193178 -3.45537,3.497809 -1.264918,0.264949 -2.669793,0.04058 -3.472491,-0.551818 -0.313718,-0.2321 -0.619082,-0.421602 -0.678527,-0.421602 -0.05955,0 -0.107895,1.079807 -0.107895,2.399612 v 2.399612 h -0.999869 -0.999811 z m 6.49924,1.717873 c 0.9378,-0.614464 1.19947,-1.425391 1.19947,-3.717542 0,-2.369221 -0.28123,-3.172593 -1.29327,-3.695975 -0.68979,-0.356579 -2.049512,-0.3972 -2.669256,-0.07932 -0.240112,0.123131 -0.729194,0.500786 -1.086642,0.839112 l -0.649896,0.615093 v 2.622946 2.622899 l 0.592416,0.567603 c 0.949225,0.909381 2.708313,1.010796 3.907178,0.225163 z m 9.56337,2.078408 c -1.11469,-0.228088 -1.83659,-0.626203 -2.59247,-1.429575 -1.18362,-1.258062 -1.37215,-1.844227 -1.37215,-4.266355 0,-2.513599 0.29339,-3.325383 1.62339,-4.493243 1.07821,-0.94663 1.90792,-1.228037 3.62114,-1.228037 3.09616,0 4.86938,1.622036 5.36161,4.904558 0.20219,1.350037 -0.24197,3.373273 -0.98337,4.477357 -1.06672,1.588411 -3.52346,2.472144 -5.65815,2.035295 z m 2.93447,-1.928543 c 0.30922,-0.182427 0.77229,-0.700015 1.02936,-1.149813 0.39585,-0.693008 0.46676,-1.092757 0.46294,-2.617574 -0.006,-2.008275 -0.25507,-2.695752 -1.30076,-3.575587 -0.51423,-0.432872 -0.82313,-0.523737 -1.77733,-0.523737 -2.20661,0 -3.28129,1.303141 -3.28994,3.9896 -0.002,0.830243 0.10572,1.832078 0.24011,2.226352 0.24385,0.712107 1.06124,1.63294 1.63572,1.841964 0.67143,0.244112 2.45494,0.130342 2.99974,-0.191502 z m 7.89842,1.957231 c -0.82461,-0.215276 -2.03606,-0.807887 -2.29817,-1.123662 -0.16212,-0.195503 -0.0989,-0.398572 0.25106,-0.805075 l 0.46769,-0.543704 1.0761,0.545304 c 0.88661,0.449136 1.26544,0.529577 2.15151,0.456085 1.17485,-0.09749 1.73865,-0.494488 1.95349,-1.375901 0.20593,-0.84469 -0.54806,-1.508336 -2.48061,-2.183377 -0.92329,-0.32229 -1.88882,-0.723993 -2.14549,-0.892168 -1.25525,-0.82247 -1.44942,-3.169975 -0.35837,-4.330429 0.82824,-0.88083 1.71971,-1.199189 3.3436,-1.194034 1.07941,0.0023 1.62033,0.114067 2.32234,0.475378 1.00582,0.517644 1.17611,0.852439 0.73815,1.451382 -0.26495,0.362008 -0.34622,0.372843 -0.95564,0.121782 -2.15436,-0.886568 -3.70085,-0.672675 -4.13468,0.571786 -0.20272,0.581147 -0.17227,0.691374 0.32502,1.189039 0.3322,0.3322 1.20039,0.765575 2.20279,1.099375 1.93808,0.645438 2.75804,1.26212 3.02873,2.277818 0.39452,1.479636 -0.29206,2.981697 -1.72924,3.785069 -0.88129,0.492556 -2.77557,0.732108 -3.75831,0.475229 z m 9.64528,-0.04515 c -1.06653,-0.251324 -2.34646,-0.940812 -2.34646,-1.264097 0,-0.150367 0.16613,-0.478693 0.36877,-0.729194 l 0.36879,-0.455468 1.07021,0.533269 c 1.44501,0.720096 2.732,0.725754 3.57592,0.01337 0.77157,-0.649198 0.82703,-1.5047 0.13914,-2.142481 -0.26174,-0.242787 -1.23393,-0.688231 -2.1599,-0.989742 -1.25006,-0.407144 -1.86105,-0.731469 -2.37314,-1.259823 -0.62712,-0.647015 -0.68964,-0.817967 -0.68964,-1.885545 0,-1.440021 0.42069,-2.102683 1.76266,-2.775553 1.20266,-0.603057 3.10872,-0.63578 4.37346,-0.07509 1.19267,0.528754 1.43476,0.855422 1.04561,1.410933 -0.37915,0.541441 -0.59026,0.543201 -1.78413,0.01337 -1.63432,-0.72292 -3.49795,-0.07052 -3.49795,1.224939 0,0.729971 0.48876,1.113902 2.12761,1.67131 2.5894,0.880692 3.43302,1.553802 3.61106,2.881059 0.23743,1.768837 -1.02126,3.41235 -2.92564,3.820774 -1.17806,0.252673 -1.60783,0.253199 -2.66613,0.0023 z m 17.54067,-0.008 c -0.44507,-0.100122 -1.08843,-0.436929 -1.42945,-0.748567 l -0.61998,-0.566243 -0.17655,0.620008 c -0.15757,0.552047 -0.26946,0.626751 -1.02021,0.681498 l -0.84343,0.06149 v -8.210122 -8.2101 h 0.99983 0.99981 v 3.31721 3.317211 l 0.6499,-0.547978 c 1.27435,-1.074573 3.04401,-1.417105 4.62516,-0.895277 1.7695,0.584016 2.83835,2.852485 2.68031,5.688752 -0.16425,2.950368 -1.58002,5.031952 -3.73664,5.494495 -0.57139,0.122856 -1.10197,0.213138 -1.17905,0.201389 -0.0771,-0.01337 -0.50438,-0.103324 -0.94954,-0.203526 z m 2.24945,-1.966397 c 0.98323,-0.59948 1.32267,-1.446856 1.4205,-3.546099 0.0745,-1.598012 0.027,-1.958123 -0.35792,-2.754968 -0.51315,-1.059989 -1.22526,-1.505707 -2.4057,-1.505707 -0.96551,0 -1.45986,0.223825 -2.34638,1.063063 l -0.6499,0.615093 v 2.639644 2.639609 l 0.70687,0.620602 c 0.61459,0.539624 0.85596,0.620522 1.84968,0.619882 0.78048,-6.4e-4 1.34582,-0.124456 1.78304,-0.391336 z m 15.08655,1.97873 c -2.59669,-0.516913 -4.22863,-2.748259 -4.22863,-5.781686 0,-2.396251 1.08524,-4.329846 2.91225,-5.188606 1.28865,-0.605755 3.3639,-0.606817 4.61241,-0.0023 1.53471,0.742944 2.58612,2.681671 2.43816,4.495747 l -0.0646,0.790868 -3.97078,0.05418 -3.97076,0.05418 0.13087,0.745573 c 0.21767,1.237935 0.94637,2.463069 1.7085,2.871629 1.01438,0.543807 2.64131,0.49122 3.97228,-0.128205 0.58834,-0.273978 1.14039,-0.497951 1.22678,-0.497951 0.0863,0 0.31506,0.240912 0.5084,0.536092 0.34711,0.529474 0.34396,0.541943 -0.22701,0.999137 -1.09631,0.877698 -3.45399,1.368769 -5.04815,1.051439 z m 3.84995,-7.535882 c -0.38595,-1.661732 -1.54334,-2.541624 -3.12048,-2.371838 -1.18749,0.127668 -1.87631,0.576666 -2.37007,1.54459 -0.71128,1.394211 -0.7437,1.377147 2.6149,1.377147 h 3.00328 z m 28.11538,7.56401 c -1.15856,-0.264948 -1.73931,-0.56166 -2.56987,-1.31201 -1.26436,-1.142269 -1.70653,-2.274744 -1.71894,-4.402275 -0.008,-1.580616 0.0582,-1.93923 0.55212,-2.945476 1.03357,-2.104799 2.92005,-3.094358 5.54132,-2.90681 3.15129,0.225162 5.05924,2.396217 5.04907,5.744391 -0.006,1.708546 -0.31821,2.794468 -1.11012,3.84881 -1.14304,1.522257 -3.77045,2.424963 -5.74358,1.97337 z m 2.76157,-2.420014 c 0.89554,-0.545955 1.23778,-1.465234 1.23778,-3.324743 0,-2.647199 -0.85868,-3.784073 -2.83546,-3.754219 -1.27823,0.01874 -1.96534,0.533965 -2.40493,1.801263 -0.77519,2.234706 -0.12633,4.893232 1.34102,5.493741 0.734,0.300608 1.98043,0.198988 2.66159,-0.216339 z m 25.88866,2.410562 c -2.15493,-0.51201 -3.40567,-2.890191 -3.20514,-6.094433 0.12446,-1.993074 0.66606,-3.225431 1.89003,-4.302804 1.4967,-1.317462 3.82011,-1.502575 5.28313,-0.420687 0.30784,0.228088 0.60867,0.413898 0.66809,0.413898 0.0595,0 0.10789,-1.34975 0.10789,-2.999481 v -2.999492 h 0.99986 0.99981 v 8.198614 8.19867 h -0.80611 c -0.82026,0 -0.85893,-0.036 -1.07975,-1.046261 l -0.11966,-0.546356 -0.88803,0.677841 c -0.51567,0.393611 -1.31516,0.769484 -1.9066,0.896317 -1.12198,0.24065 -1.03765,0.239575 -1.94372,0.02137 z m 3.0076,-1.829495 c 0.24012,-0.123119 0.72928,-0.500808 1.08673,-0.839123 l 0.64985,-0.615104 v -2.622946 -2.622888 l -0.57755,-0.553351 c -1.15799,-1.109398 -3.16212,-1.055633 -4.25482,0.114307 -0.75601,0.809327 -1.02701,1.944282 -0.92615,3.879271 0.0917,1.758734 0.55615,2.828815 1.40571,3.238313 0.60115,0.289785 2.06972,0.301991 2.61623,0.02137 z m 10.40042,1.818728 c -1.68811,-0.341709 -2.92243,-1.376267 -3.69209,-3.094517 -0.60786,-1.357088 -0.62082,-3.975679 -0.027,-5.309748 0.8513,-1.910359 2.57193,-3.013722 4.71911,-3.026112 2.6616,-0.01337 4.31576,1.372553 4.73963,3.976777 0.30876,1.897728 0.39134,1.859508 -4.01294,1.859508 h -3.79233 v 0.657485 c 0,0.931326 0.78027,2.359254 1.57933,2.890306 0.9926,0.659645 2.69111,0.624842 4.14038,-0.08492 l 1.09526,-0.536309 0.4392,0.439192 c 0.5878,0.587856 0.3372,0.980176 -1.06522,1.667606 -1.21177,0.593971 -2.85558,0.817442 -4.12392,0.560689 z m 3.93333,-7.443828 c -10e-4,-0.652971 -0.69542,-1.690523 -1.44719,-2.162563 -0.81226,-0.510056 -2.32417,-0.434232 -3.11622,0.155705 -0.55538,0.413909 -1.09537,1.230334 -1.32734,2.006675 l -0.13461,0.450016 h 3.01298 c 2.99149,0 3.01299,-0.0023 3.01222,-0.450016 z m 34.02442,7.433702 c -2.7842,-0.547202 -4.42278,-3.036684 -4.1835,-6.356112 0.10389,-1.439141 0.7596,-2.995881 1.58729,-3.767387 1.38567,-1.291574 4.15379,-1.688591 5.89534,-0.84557 1.55572,0.753139 2.56574,2.600384 2.4315,4.447171 l -0.0609,0.837958 -3.96428,0.05418 -3.96427,0.05418 0.129,0.645598 c 0.26901,1.344676 0.52914,1.894632 1.20563,2.550322 0.61483,0.595949 0.84869,0.685751 1.97231,0.757277 1.07439,0.06869 1.47131,-0.008 2.52464,-0.479721 l 1.2498,-0.560906 0.37374,0.461286 c 0.49485,0.611115 0.47627,0.716484 -0.21314,1.207395 -1.22496,0.872246 -3.39779,1.305758 -4.98302,0.994165 z m 3.86629,-7.633662 c -0.39406,-1.890254 -2.11749,-2.777542 -3.99908,-2.05892 -0.676,0.258274 -1.0235,0.554928 -1.39793,1.193794 -0.89193,1.522016 -0.90352,1.515022 2.5171,1.515022 h 3.01543 z m 23.88753,7.581714 c -2.39834,-0.662365 -3.61806,-2.556597 -3.63716,-5.64852 -0.0214,-3.548316 1.96324,-5.717862 5.23202,-5.717862 1.38977,0 2.45897,0.325022 3.33341,1.012681 l 0.49336,0.388182 -0.48578,0.564734 -0.48578,0.564723 -0.79637,-0.447764 c -1.09801,-0.617082 -2.73127,-0.614865 -3.66188,0.0057 -1.87564,1.249239 -2.10141,5.396499 -0.38322,7.04248 0.51871,0.496991 0.80665,0.597594 1.91152,0.66792 1.15976,0.07395 1.39101,0.02137 2.13187,-0.467125 0.86183,-0.570289 1.20072,-0.538344 1.63775,0.154367 0.69339,1.099192 -3.15945,2.469298 -5.28956,1.880985 z m 10.9411,0.05955 c -3.18477,-0.541406 -4.93611,-4.204327 -3.81504,-7.979383 0.40624,-1.367854 1.79709,-2.807155 3.08173,-3.188925 2.36945,-0.704152 5.03217,-0.0057 6.21825,1.632026 1.56941,2.166552 1.557,5.540167 -0.027,7.728835 -1.03522,1.429049 -3.28954,2.175822 -5.45648,1.807447 z m 2.98479,-1.96922 c 0.98525,-0.600841 1.3838,-1.645868 1.3838,-3.628747 0,-2.939281 -0.9345,-4.193572 -3.12309,-4.192097 -2.18432,0.0011 -3.16711,1.273309 -3.16711,4.098626 0,2.83757 0.98125,4.09777 3.1907,4.09777 0.72414,0 1.31021,-0.128205 1.7157,-0.375552 z M 48.701054,83.02047 v -7.998642 h 1.099797 1.099844 v 7.998642 7.998676 h -1.099844 -1.099797 z m 5.599053,2.299671 v -5.699084 h 0.583547 c 0.874064,0 1.216162,0.193628 1.216162,0.687957 0,0.708849 0.198154,0.731731 0.973546,0.112466 1.640416,-1.310672 4.024735,-1.052261 4.82062,0.522422 0.160254,0.317319 0.310084,0.607436 0.332658,0.644662 0.02137,0.036 0.368786,-0.295203 0.769711,-0.738681 0.831306,-0.920193 1.69538,-1.270281 3.108302,-1.259365 1.726606,0.01337 2.81375,0.792639 3.362369,2.410081 0.144767,0.427442 0.230763,2.227129 0.230763,4.84916 v 4.169455 h -0.999812 -0.999857 l -0.0011,-3.749351 c -0.0011,-4.111336 -0.152505,-5.026375 -0.932618,-5.639982 -0.631117,-0.496431 -1.980707,-0.546321 -2.622351,-0.09692 -0.941612,0.659588 -1.043107,1.192319 -1.043107,5.476996 v 4.009259 h -1.099786 -1.099843 l -7.2e-4,-4.149294 c -6.74e-4,-3.772107 -0.03612,-4.207916 -0.393599,-4.79384 -0.690985,-1.133229 -2.381325,-1.144361 -3.537904,-0.02137 l -0.666869,0.646353 v 4.160084 4.160071 h -0.999812 -0.999869 z m 63.036403,0.05018 0.0531,-5.649057 1.0498,-0.06035 1.04984,-0.06035 v 5.709508 5.709497 h -1.10291 -1.10295 z m 17.95011,-2.549602 v -8.198613 h 0.99981 0.99986 v 8.198613 8.198659 h -0.99986 -0.99981 z m 22.99617,0.09406 V 74.774 l 3.74937,0.09887 c 3.96734,0.104695 5.06715,0.307844 6.25779,1.155471 1.15993,0.825877 1.72191,2.891094 1.17825,4.329915 -0.26361,0.697363 -1.10421,1.602995 -1.8494,1.992148 l -0.56238,0.293843 1.06207,0.538309 c 0.61936,0.314176 1.25682,0.830106 1.52928,1.238244 0.40263,0.60332 0.45759,0.895917 0.39766,2.120239 -0.0937,1.923331 -0.71114,2.830552 -2.53737,3.730092 l -1.31671,0.648593 -3.95432,0.06812 -3.95429,0.06812 z m 7.81914,5.248589 c 0.42699,-0.287065 0.78427,-0.757265 0.96176,-1.266521 0.25639,-0.735583 0.24731,-0.882053 -0.0999,-1.593188 -0.51213,-1.049176 -1.10277,-1.284019 -3.58246,-1.424454 l -2.09898,-0.118593 v 2.429683 2.429763 h 2.07011 c 1.82377,0 2.15093,-0.05418 2.74955,-0.45645 z m -0.74005,-6.621244 c 0.87496,-0.36562 1.31952,-1.031037 1.31952,-1.975244 0,-1.053439 -0.464,-1.858754 -1.22354,-2.123542 -0.34984,-0.121794 -1.43231,-0.221688 -2.40571,-0.221688 h -1.76988 v 2.299638 2.299615 h 1.70615 c 1.00676,0 1.97973,-0.114307 2.37346,-0.278973 z m 19.88171,6.529659 1.98338,-2.965535 -1.86596,-2.742465 -1.86595,-2.742464 h 1.56062 1.56066 l 1.2608,2.01431 1.26084,2.014276 1.288,-2.014276 1.28792,-2.01431 h 1.3981 c 0.76895,0 1.3681,0.06995 1.33146,0.155168 -0.036,0.08526 -0.85529,1.293151 -1.81912,2.684059 l -1.75249,2.528823 1.90242,2.910902 c 1.04637,1.600995 1.90246,2.957763 1.90246,3.015048 0,0.251861 -2.78381,0.09109 -3.05094,-0.175741 -0.15385,-0.153842 -0.80973,-1.155631 -1.45726,-2.225837 -0.98221,-1.623466 -1.21156,-1.889957 -1.38402,-1.608561 -0.11372,0.185627 -0.74669,1.16466 -1.40655,2.175844 l -1.19983,1.838546 -1.4589,0.05898 -1.45896,0.05898 z m 47.22683,-5.051052 V 75.02209 h 1.07537 c 0.75129,0 1.15707,0.09829 1.34662,0.326782 0.1493,0.179753 1.57749,2.676893 3.17394,5.549083 l 2.90267,5.222209 0.55845,-1.099866 c 0.30693,-0.604898 1.65692,-3.079477 2.99948,-5.499056 l 2.44109,-4.399258 1.1498,-0.06012 1.14981,-0.06012 v 8.008631 8.008666 h -0.99703 -0.99695 l -0.0529,-6.190098 -0.0529,-6.190041 -2.68255,4.909599 c -2.83988,5.197556 -3.17184,5.608711 -4.05814,5.026935 -0.25267,-0.166128 -1.66779,-2.485447 -3.15762,-5.176204 l -2.69961,-4.875471 -0.0529,6.247646 -0.0529,6.247634 h -0.99695 -0.99702 z m 32.35888,5.082574 1.9896,-2.916159 -1.89057,-2.732898 -1.89057,-2.732966 0.93825,-0.06172 c 0.51604,-0.036 1.05683,-0.01874 1.20192,0.04057 0.14475,0.05555 0.90413,1.055851 1.68699,2.222671 l 1.42339,2.121543 1.4602,-2.16078 1.4602,-2.160735 1.05322,-0.06138 c 1.30755,-0.07635 1.33519,-0.166929 -0.90937,2.988291 l -1.72025,2.418334 1.91565,2.875287 c 1.05358,1.58145 1.91561,2.920834 1.91561,2.976438 0,0.05555 -0.49669,0.101266 -1.10378,0.101266 h -1.10387 l -1.52835,-2.367152 -1.52831,-2.367129 -1.56407,2.367129 -1.56402,2.367152 h -1.11578 -1.11572 z m 10.63396,-2.782902 v -5.719977 l 1.04982,0.06035 1.04984,0.06058 v 5.599087 5.59903 l -1.04984,0.06035 -1.04982,0.06058 z m -19.36344,-7.460607 c 0.0361,-0.08892 0.42476,-0.767391 0.86265,-1.507535 0.85926,-1.452765 1.09613,-1.591085 2.55577,-1.492643 l 0.92569,0.06229 -1.40699,1.549711 c -1.30676,1.439278 -1.46392,1.549744 -2.20543,1.549744 -0.43917,0 -0.76833,-0.07269 -0.73169,-0.161591 z m -138.54289,-0.53345 c -0.87401,-0.612156 -0.75893,-1.772998 0.24065,-2.428026 0.41751,-0.273544 0.58791,-0.284813 1.10042,-0.07269 1.08373,0.448679 1.31062,1.49462 0.50017,2.305032 -0.55709,0.557145 -1.2241,0.627951 -1.84143,0.195514 z m 157.99724,-0.195503 c -0.77533,-0.775346 -0.63094,-1.722651 0.33899,-2.224237 0.48799,-0.252399 0.66865,-0.259073 1.12376,-0.04057 0.29836,0.143156 0.65925,0.503941 0.8022,0.802195 0.21793,0.455091 0.2118,0.635769 -0.0406,1.123765 -0.50162,0.969969 -1.44895,1.114382 -2.22427,0.338978 z"
     id="path3728"
     inkscape:connector-curvature="0"
     inkscape:export-filename="/home/oscar/Imágenes/LogoBlack900pp.png"
     inkscape:export-xdpi="900.08002"
     inkscape:export-ydpi="900.08002" />
</svg>
